<svg width="59" height="59" viewBox="0 0 59 59" fill="none" xmlns="http://www.w3.org/2000/svg">
<path d="M56.3906 27.011L31.9883 2.60991C30.5833 1.20425 28.3042 1.20425 26.8979 2.60991L21.8312 7.67783L28.2586 14.1052C29.7524 13.6003 31.4653 13.9391 32.6556 15.1301C33.8532 16.3283 34.189 18.0557 33.6714 19.5551L39.867 25.7501C41.3663 25.2331 43.0949 25.5676 44.292 26.7665C45.9647 28.4391 45.9647 31.1495 44.292 32.8234C42.6181 34.4967 39.9077 34.4967 38.2332 32.8234C36.9754 31.5643 36.6639 29.7152 37.302 28.1654L31.5236 22.3877V37.592C31.9312 37.794 32.3162 38.0628 32.6556 38.4022C34.3283 40.0749 34.3283 42.7853 32.6556 44.4598C30.9829 46.1318 28.2707 46.1318 26.5993 44.4598C24.9266 42.7846 24.9266 40.0743 26.5993 38.4022C27.0129 37.9892 27.4916 37.6766 28.0025 37.4673V22.1213C27.4916 21.912 27.0141 21.6024 26.5993 21.1864C25.3323 19.92 25.0276 18.06 25.6772 16.5041L19.3411 10.1668L2.60817 26.8978C1.20251 28.3047 1.20251 30.5838 2.60817 31.9895L27.0117 56.3911C28.4167 57.7968 30.6952 57.7968 32.1021 56.3911L56.3906 32.1026C57.7963 30.6969 57.7963 28.4166 56.3906 27.011Z" fill="#F05133"/>
</svg>
