<svg width="61" height="63" viewBox="0 0 61 63" fill="none" xmlns="http://www.w3.org/2000/svg">
<path d="M30.5 42.4433C46.7924 42.4433 60 37.4004 60 31.1796C60 24.9589 46.7924 19.916 30.5 19.916C14.2076 19.916 1 24.9589 1 31.1796C1 37.4004 14.2076 42.4433 30.5 42.4433Z" stroke="#61DAFB"/>
<path d="M20.7453 36.8114C28.8915 50.921 39.8626 59.8376 45.2499 56.7273C50.6372 53.6169 48.4007 39.6573 40.2545 25.5477C32.1083 11.4381 21.1372 2.52145 15.7499 5.63182C10.3626 8.74218 12.5991 22.7017 20.7453 36.8114Z" stroke="#61DAFB"/>
<path d="M20.7455 25.5517C12.5993 39.6613 10.3628 53.6208 15.7501 56.7312C21.1374 59.8416 32.1085 50.9249 40.2547 36.8153C48.4008 22.7057 50.6374 8.74613 45.25 5.63576C39.8627 2.52539 28.8917 11.442 20.7455 25.5517Z" stroke="#61DAFB"/>
<path d="M30.5001 36.6819C33.5364 36.6819 35.9978 34.2205 35.9978 31.1842C35.9978 28.1479 33.5364 25.6865 30.5001 25.6865C27.4638 25.6865 25.0023 28.1479 25.0023 31.1842C25.0023 34.2205 27.4638 36.6819 30.5001 36.6819Z" fill="#61DAFB"/>
</svg>
