<svg width="60" height="45" viewBox="0 0 60 45" fill="none" xmlns="http://www.w3.org/2000/svg">
<g clip-path="url(#clip0_160_224)">
<path d="M51.6328 25.8517C49.5352 25.8635 47.7187 26.3673 46.1953 27.1174C45.6328 26.0042 45.0703 25.0314 44.9767 24.3049C44.8712 23.4612 44.7423 22.9454 44.8712 21.9377C45 20.9298 45.5859 19.5001 45.5859 19.3829C45.5741 19.2775 45.4569 18.7618 44.25 18.7501C43.0431 18.7384 42 18.9845 41.8828 19.3009C41.7656 19.6173 41.5312 20.3439 41.3789 21.0939C41.168 22.1954 38.9648 26.0978 37.7109 28.1486C37.3008 27.3517 36.9492 26.6486 36.8788 26.086C36.7734 25.2423 36.6444 24.7266 36.7734 23.7189C36.9023 22.7109 37.4883 21.2814 37.4883 21.1642C37.4766 21.0587 37.3594 20.5431 36.1525 20.5314C34.9453 20.5197 33.9025 20.7658 33.7853 21.0822C33.6681 21.3986 33.5392 22.1486 33.2814 22.8751C33.0352 23.6017 30.1055 30.1173 29.3437 31.8165C28.957 32.6837 28.6173 33.3751 28.3711 33.8439C28.125 34.3126 28.3594 33.879 28.3359 33.9259C28.125 34.3244 28.0078 34.547 28.0078 34.547V34.5588C27.8438 34.8518 27.668 35.1329 27.5858 35.1329C27.5272 35.1329 27.41 34.3478 27.6093 33.2698C28.0429 31.0079 29.0975 27.4807 29.0859 27.3518C29.0859 27.2932 29.285 26.672 28.4061 26.3557C27.5507 26.0393 27.2461 26.5667 27.1757 26.5667C27.1054 26.5667 27.0468 26.7542 27.0468 26.7542C27.0468 26.7542 27.996 22.7816 25.2304 22.7816C23.496 22.7816 21.1054 24.6683 19.9218 26.391C19.1718 26.8011 17.578 27.6682 15.8905 28.5941C15.246 28.9457 14.578 29.3207 13.9452 29.6605L13.8164 29.5197C10.4648 25.9454 4.26563 23.4142 4.52344 18.6095C4.61719 16.8634 5.22657 12.2579 16.4298 6.67981C25.6056 2.1095 32.9532 3.36341 34.2305 6.15247C36.0469 10.1368 30.3047 17.5431 20.7657 18.6095C17.1329 19.0197 15.2227 17.6134 14.7423 17.0861C14.2384 16.5353 14.1681 16.5118 13.9806 16.6173C13.6759 16.7814 13.8634 17.2736 13.9806 17.5665C14.2618 18.3048 15.4337 19.6173 17.4259 20.2736C19.1719 20.8478 23.4376 21.1642 28.5939 19.172C34.3712 16.9337 38.8829 10.7228 37.5587 5.53138C36.2111 0.246218 27.4454 -1.48816 19.1603 1.45325C14.2266 3.21106 8.88282 5.95325 5.03907 9.55091C0.468755 13.8165 -0.257808 17.5431 0.0468796 19.09C1.1134 24.6095 8.71875 28.2072 11.7656 30.8673C11.6133 30.9492 11.4727 31.0313 11.3438 31.1017C9.82032 31.8516 4.01954 34.8869 2.56641 38.0977C0.925786 41.7305 2.82422 44.3439 4.08985 44.6955C8.00391 45.7853 12.0117 43.8283 14.1797 40.6056C16.3358 37.3829 16.0781 33.1994 15.082 31.2892L15.0468 31.2189L16.2421 30.5158C17.0156 30.0587 17.7773 29.6369 18.4452 29.2735C18.0703 30.293 17.8007 31.5 17.6602 33.2578C17.4961 35.3204 18.3398 37.9922 19.4531 39.0469C19.9453 39.5038 20.5313 39.5156 20.8945 39.5156C22.1836 39.5156 22.7695 38.4491 23.4141 37.1719C24.2109 35.6133 24.9141 33.8086 24.9141 33.8086C24.9141 33.8086 24.0352 38.6953 26.4375 38.6953C27.3164 38.6953 28.1953 37.5586 28.5938 36.9727V36.9844C28.5938 36.9844 28.6172 36.9492 28.6641 36.8672C28.7132 36.7945 28.7601 36.7203 28.8047 36.6447V36.6212C29.1563 36.0119 29.9414 34.6173 31.1133 32.3087C32.6249 29.3322 34.0781 25.6056 34.0781 25.6056C34.0781 25.6056 34.2188 26.5197 34.6523 28.0197C34.91 28.9104 35.4725 29.8829 35.9061 30.8322C35.5546 31.3244 35.3436 31.6057 35.3436 31.6057L35.3554 31.6174C35.0742 31.9924 34.7577 32.391 34.4297 32.7893C33.2344 34.219 31.8047 35.848 31.6172 36.3168C31.3945 36.8674 31.4414 37.2776 31.875 37.6058C32.1914 37.8402 32.7539 37.887 33.3516 37.8402C34.4297 37.7698 35.1797 37.5004 35.5547 37.3362C36.1406 37.1253 36.8086 36.8088 37.4531 36.3401C38.625 35.473 39.3398 34.2426 39.2695 32.6019C39.2344 31.6996 38.9414 30.809 38.5781 29.9652C38.6836 29.8129 38.7892 29.6604 38.8945 29.4965C40.7461 26.7893 42.1758 23.8129 42.1758 23.8129C42.1758 23.8129 42.3164 24.7269 42.75 26.2269C42.9725 26.9886 43.418 27.8208 43.8164 28.6411C42.082 30.0591 40.9922 31.6997 40.6172 32.7778C39.9258 34.77 40.4648 35.6724 41.4844 35.8833C41.9413 35.9771 42.5977 35.7661 43.0897 35.5552C43.6991 35.356 44.4374 35.016 45.1172 34.5122C46.2891 33.645 47.4141 32.438 47.3555 30.8091C47.3203 30.0591 47.1211 29.3208 46.8516 28.6177C48.3281 28.0083 50.2382 27.6567 52.6641 27.9497C57.8789 28.5591 58.9102 31.8169 58.7111 33.1763C58.5118 34.5358 57.422 35.2856 57.0586 35.52C56.6953 35.7427 56.5781 35.8248 56.6133 35.9888C56.6602 36.235 56.8242 36.2231 57.1406 36.1764C57.5742 36.106 59.8828 35.0631 59.9766 32.5554C60.1172 29.3323 57.0586 25.8167 51.6328 25.8517ZM11.4141 39.4103C9.69141 41.297 7.26563 42.0119 6.23438 41.4025C5.1211 40.7579 5.55457 37.9806 7.67578 35.9767C8.96485 34.7579 10.6406 33.6329 11.7422 32.9415C11.9883 32.7892 12.3633 32.5667 12.8086 32.297C12.8789 32.2503 12.9258 32.2267 12.9258 32.2267C13.0078 32.1798 13.1016 32.1212 13.1953 32.0626C13.9805 34.922 13.2305 37.4298 11.4141 39.4103ZM24.0117 30.8439C23.4141 32.3087 22.1484 36.0704 21.3867 35.8595C20.7304 35.6837 20.332 32.8361 21.2577 30.0236C21.7264 28.6055 22.7225 26.9181 23.3085 26.2617C24.2578 25.207 25.2889 24.8555 25.5469 25.2891C25.8516 25.8517 24.3867 29.9298 24.0117 30.8439ZM34.4063 35.8126C34.1484 35.9417 33.9141 36.0353 33.8086 35.9651C33.7266 35.9182 33.9139 35.7424 33.9139 35.7424C33.9139 35.7424 35.2147 34.3479 35.7303 33.7034C36.0233 33.3285 36.3749 32.8949 36.7499 32.4026V32.5432C36.75 34.2306 35.1328 35.3556 34.4063 35.8126ZM42.4218 33.9845C42.2343 33.8439 42.2578 33.4103 42.8905 32.0509C43.1367 31.5119 43.6991 30.6095 44.6718 29.754C44.7889 30.1056 44.8594 30.4453 44.8475 30.7619C44.8359 32.8712 43.3359 33.6564 42.4218 33.9845Z" fill="#CF649A"/>
</g>
<defs>
<clipPath id="clip0_160_224">
<rect width="60" height="45" fill="white"/>
</clipPath>
</defs>
</svg>
